<?xml version="1.0" encoding="UTF-8"?>
<svg xmlns="http://www.w3.org/2000/svg" xmlns:xlink="http://www.w3.org/1999/xlink" width="100px" height="136px" viewBox="0 0 100 135" version="1.1">
<g id="surface1">
<path style=" stroke:none;fill-rule:nonzero;fill:rgb(90.588235%,22.352941%,0%);fill-opacity:1;" d="M 55.019531 1.535156 C 55.199219 2.085938 55.167969 2.484375 55.066406 3.050781 C 55.039062 3.226562 55.011719 3.398438 54.980469 3.574219 C 54.917969 3.925781 54.859375 4.277344 54.796875 4.628906 C 54.230469 8.03125 54.128906 11.449219 54.140625 14.890625 C 54.140625 15.089844 54.140625 15.289062 54.140625 15.496094 C 54.152344 18.804688 54.277344 22.066406 54.6875 25.347656 C 54.703125 25.464844 54.71875 25.578125 54.730469 25.695312 C 55.917969 35.320312 58.238281 44.777344 61.464844 53.925781 C 61.816406 53.402344 62.070312 52.863281 62.332031 52.296875 C 62.441406 52.0625 62.546875 51.828125 62.65625 51.597656 C 62.714844 51.472656 62.769531 51.351562 62.828125 51.226562 C 63.972656 48.769531 65.191406 46.398438 66.589844 44.070312 C 66.742188 43.816406 66.894531 43.558594 67.046875 43.300781 C 69.035156 39.96875 71.367188 36.863281 73.863281 33.890625 C 74 33.722656 74.140625 33.558594 74.285156 33.386719 C 75.464844 31.988281 76.710938 30.679688 78.015625 29.394531 C 78.335938 29.074219 78.660156 28.753906 78.980469 28.433594 C 80.027344 27.390625 81.078125 26.394531 82.246094 25.484375 C 82.617188 25.191406 82.964844 24.878906 83.316406 24.558594 C 86.722656 21.539062 90.792969 19.097656 94.765625 16.882812 C 95.046875 16.722656 95.328125 16.558594 95.609375 16.394531 C 95.742188 16.316406 95.875 16.238281 96.011719 16.160156 C 96.125 16.089844 96.242188 16.023438 96.363281 15.953125 C 96.671875 15.824219 96.671875 15.824219 97.167969 15.988281 C 97.042969 16.113281 97.042969 16.113281 96.914062 16.238281 C 96.527344 16.621094 96.140625 17.003906 95.753906 17.382812 C 95.621094 17.515625 95.488281 17.644531 95.351562 17.777344 C 94.542969 18.578125 93.777344 19.398438 93.035156 20.257812 C 92.882812 20.429688 92.730469 20.601562 92.578125 20.773438 C 90.496094 23.128906 88.605469 25.65625 86.921875 28.304688 C 86.859375 28.398438 86.800781 28.492188 86.738281 28.589844 C 82.332031 35.519531 79.726562 43.261719 79.761719 51.484375 C 79.761719 51.628906 79.761719 51.777344 79.761719 51.929688 C 79.769531 54.21875 79.878906 56.4375 80.308594 58.6875 C 80.335938 58.84375 80.367188 59 80.394531 59.160156 C 81.59375 65.671875 84.15625 71.628906 86.855469 77.636719 C 87.441406 78.9375 88.007812 80.242188 88.5625 81.558594 C 88.640625 81.738281 88.71875 81.917969 88.796875 82.101562 C 89.5625 83.941406 90.074219 85.835938 90.339844 87.808594 C 90.359375 87.941406 90.378906 88.074219 90.398438 88.207031 C 90.457031 88.605469 90.507812 89.003906 90.558594 89.402344 C 90.574219 89.515625 90.589844 89.632812 90.605469 89.753906 C 91.660156 98.429688 89.808594 108.707031 84.339844 115.71875 C 82.507812 118.011719 80.503906 120.136719 78.160156 121.917969 C 78.050781 122.003906 77.941406 122.085938 77.828125 122.171875 C 74.722656 124.546875 71.398438 126.402344 67.914062 128.160156 C 67.792969 128.21875 67.671875 128.28125 67.546875 128.34375 C 66.144531 129.054688 64.726562 129.738281 63.304688 130.417969 C 63.148438 130.492188 62.992188 130.570312 62.828125 130.648438 C 62.085938 131 61.34375 131.332031 60.578125 131.628906 C 59.996094 131.855469 59.496094 132.105469 58.988281 132.472656 C 58.355469 132.921875 58.355469 132.921875 57.996094 132.921875 C 57.941406 133.03125 57.886719 133.140625 57.828125 133.25 C 57.160156 133.164062 56.789062 132.976562 56.269531 132.554688 C 56.089844 132.410156 56.089844 132.410156 55.910156 132.261719 C 55.617188 132.019531 55.328125 131.773438 55.039062 131.523438 C 53.289062 130.140625 50.949219 129.566406 48.832031 128.980469 C 48.316406 128.835938 47.804688 128.6875 47.292969 128.535156 C 43.160156 127.328125 38.953125 126.695312 34.695312 126.105469 C 27.628906 125.125 27.628906 125.125 24.359375 124.085938 C 24.179688 124.027344 24.003906 123.972656 23.820312 123.917969 C 20.761719 122.929688 18.183594 121.507812 15.847656 119.292969 C 15.738281 119.195312 15.625 119.101562 15.511719 119.003906 C 14.320312 117.929688 13.539062 116.539062 12.707031 115.183594 C 12.621094 115.050781 12.539062 114.914062 12.453125 114.777344 C 8.5625 108.476562 5.246094 101.691406 4.109375 94.328125 C 4.078125 94.121094 4.078125 94.121094 4.046875 93.910156 C 2.847656 85.726562 5.261719 77.785156 7.570312 70.019531 C 11.027344 58.394531 13.136719 46.890625 12.582031 34.710938 C 12.574219 34.558594 12.566406 34.40625 12.5625 34.25 C 12.429688 31.386719 12.15625 28.550781 11.824219 25.707031 C 11.691406 24.550781 11.613281 23.390625 11.546875 22.230469 C 12.046875 22.710938 12.492188 23.175781 12.878906 23.75 C 12.964844 23.878906 13.054688 24.007812 13.144531 24.140625 C 13.234375 24.273438 13.324219 24.410156 13.417969 24.546875 C 13.609375 24.832031 13.800781 25.113281 13.996094 25.398438 C 14.085938 25.53125 14.179688 25.667969 14.273438 25.804688 C 14.570312 26.238281 14.878906 26.65625 15.195312 27.074219 C 17.640625 30.386719 19.660156 34.0625 21.632812 37.667969 C 21.769531 37.917969 21.769531 37.917969 21.910156 38.175781 C 23.390625 40.871094 24.800781 43.585938 26.09375 46.371094 C 26.179688 46.550781 26.261719 46.730469 26.347656 46.917969 C 28.78125 52.179688 30.945312 57.550781 33.070312 62.941406 C 33.320312 63.578125 33.574219 64.210938 33.835938 64.84375 C 33.878906 64.960938 33.925781 65.074219 33.976562 65.191406 C 34.101562 65.496094 34.226562 65.796875 34.351562 66.101562 C 34.523438 66.570312 34.523438 66.570312 34.523438 67.066406 C 34.632812 67.066406 34.742188 67.066406 34.855469 67.066406 C 34.859375 66.964844 34.863281 66.867188 34.867188 66.761719 C 34.984375 64.960938 35.332031 63.203125 35.660156 61.429688 C 35.691406 61.25 35.726562 61.074219 35.757812 60.890625 C 38.773438 44.445312 42.28125 27.65625 55.019531 1.535156 Z M 55.019531 1.535156 "/>
<path style=" stroke:none;fill-rule:nonzero;fill:rgb(90.588235%,87.843137%,0%);fill-opacity:1;" d="M 47.914062 63.945312 C 47.964844 63.945312 48.019531 63.945312 48.078125 63.945312 C 48.066406 64.054688 48.054688 64.167969 48.042969 64.28125 C 47.6875 68.070312 47.746094 71.882812 48.574219 75.605469 C 48.609375 75.777344 48.648438 75.945312 48.6875 76.121094 C 50.164062 82.699219 53.597656 94.394531 58.492188 99.253906 C 58.582031 98.949219 58.675781 98.644531 58.765625 98.335938 C 58.855469 98.050781 58.941406 97.765625 59.027344 97.480469 C 59.296875 96.59375 59.558594 95.707031 59.820312 94.816406 C 64.261719 79.753906 64.261719 79.753906 69.234375 76.917969 C 69.480469 76.835938 69.480469 76.835938 69.730469 76.753906 C 69.496094 77.242188 69.222656 77.6875 68.925781 78.140625 C 67.855469 79.929688 67.636719 81.703125 67.675781 83.753906 C 67.675781 83.871094 67.675781 83.984375 67.679688 84.105469 C 67.757812 90.925781 70.570312 97.472656 73.078125 103.738281 C 73.628906 105.113281 74.160156 106.496094 74.65625 107.894531 C 74.703125 108.023438 74.746094 108.15625 74.796875 108.289062 C 75.796875 111.164062 76.078125 113.488281 74.695312 116.332031 C 73.164062 119.332031 71.007812 121.867188 68.742188 124.34375 C 68.449219 124.664062 68.164062 124.996094 67.882812 125.328125 C 65.839844 127.632812 63.605469 129.492188 60.949219 131.058594 C 60.796875 131.167969 60.796875 131.167969 60.640625 131.28125 C 60.640625 131.386719 60.640625 131.496094 60.640625 131.609375 C 60.527344 131.664062 60.417969 131.714844 60.300781 131.769531 C 60.152344 131.84375 60.007812 131.914062 59.855469 131.988281 C 59.636719 132.09375 59.636719 132.09375 59.414062 132.203125 C 58.984375 132.417969 58.984375 132.417969 58.621094 132.703125 C 58.324219 132.921875 58.324219 132.921875 57.996094 132.921875 C 57.941406 133.03125 57.886719 133.140625 57.828125 133.25 C 57.164062 133.160156 56.78125 132.976562 56.257812 132.5625 C 56.078125 132.421875 56.078125 132.421875 55.894531 132.277344 C 55.515625 131.9375 55.515625 131.9375 55.191406 131.480469 C 54.507812 130.648438 53.449219 130.234375 52.5 129.761719 C 52.390625 129.707031 52.277344 129.648438 52.167969 129.59375 C 49.492188 128.238281 46.742188 127.070312 43.988281 125.886719 C 42.027344 125.042969 40.089844 124.148438 38.160156 123.234375 C 38.007812 123.160156 37.851562 123.085938 37.695312 123.011719 C 34.445312 121.46875 31.410156 119.765625 28.902344 117.15625 C 28.769531 117.023438 28.636719 116.890625 28.5 116.753906 C 28.359375 116.617188 28.222656 116.476562 28.078125 116.335938 C 27.9375 116.203125 27.9375 116.203125 27.789062 116.066406 C 24.269531 112.714844 21.671875 107.890625 21.53125 102.996094 C 21.515625 99.28125 22.265625 95.769531 23.195312 92.191406 C 24.53125 87.035156 25.308594 81.898438 25.597656 76.589844 C 25.878906 77.007812 26.015625 77.285156 26.167969 77.746094 C 26.210938 77.878906 26.257812 78.007812 26.300781 78.144531 C 26.347656 78.285156 26.398438 78.425781 26.445312 78.570312 C 28.183594 83.59375 30.945312 87.773438 34.523438 91.699219 C 34.601562 91.785156 34.679688 91.871094 34.761719 91.960938 C 35.441406 92.710938 36.132812 93.449219 36.828125 94.1875 C 37.6875 95.105469 38.539062 96.035156 39.367188 96.984375 C 39.445312 97.074219 39.523438 97.160156 39.601562 97.25 C 40.078125 97.800781 40.503906 98.371094 40.917969 98.960938 C 41.019531 99.109375 41.125 99.257812 41.230469 99.410156 C 41.308594 99.519531 41.386719 99.632812 41.464844 99.746094 C 41.472656 99.648438 41.476562 99.550781 41.484375 99.445312 C 43.15625 69.152344 43.15625 69.152344 47.914062 63.945312 Z M 47.914062 63.945312 "/>
<path style=" stroke:none;fill-rule:nonzero;fill:rgb(90.588235%,54.509804%,0%);fill-opacity:1;" d="M 50.722656 25.347656 C 50.777344 25.347656 50.832031 25.347656 50.886719 25.347656 C 50.917969 26.402344 50.851562 27.421875 50.726562 28.46875 C 50.121094 33.535156 50.03125 38.636719 50.019531 43.734375 C 50.019531 43.929688 50.019531 44.125 50.015625 44.328125 C 49.992188 51.167969 50.574219 58.226562 52.707031 64.765625 C 52.75 64.902344 52.792969 65.039062 52.839844 65.179688 C 54.351562 69.816406 56.574219 74.777344 60.144531 78.234375 C 60.164062 78.0625 60.1875 77.894531 60.207031 77.722656 C 60.363281 76.734375 60.6875 75.804688 61 74.855469 C 61.035156 74.746094 61.074219 74.636719 61.109375 74.523438 C 64.253906 64.929688 67.953125 53.804688 75.847656 47.027344 C 75.847656 47.597656 75.660156 47.976562 75.425781 48.488281 C 74.847656 49.773438 74.355469 51.0625 73.976562 52.417969 C 73.9375 52.546875 73.898438 52.675781 73.859375 52.808594 C 73.121094 55.558594 72.953125 58.398438 72.972656 61.230469 C 72.972656 61.714844 72.972656 62.203125 72.96875 62.6875 C 72.964844 64.949219 73.191406 67.132812 73.53125 69.363281 C 73.5625 69.566406 73.589844 69.769531 73.617188 69.980469 C 73.980469 72.550781 74.535156 75.0625 75.183594 77.574219 C 75.222656 77.71875 75.257812 77.863281 75.296875 78.011719 C 76.09375 81.128906 77.054688 84.1875 78.066406 87.242188 C 78.265625 87.839844 78.464844 88.441406 78.664062 89.042969 C 79.230469 90.769531 79.800781 92.496094 80.390625 94.214844 C 81.265625 96.796875 81.992188 99.328125 82.292969 102.046875 C 82.308594 102.183594 82.324219 102.324219 82.339844 102.464844 C 82.902344 107.792969 82.632812 113.660156 79.152344 118.027344 C 78.878906 118.34375 78.605469 118.65625 78.324219 118.960938 C 78.230469 119.066406 78.136719 119.171875 78.039062 119.277344 C 77.71875 119.625 77.398438 119.972656 77.074219 120.316406 C 76.972656 120.425781 76.871094 120.535156 76.769531 120.648438 C 76.148438 121.300781 75.503906 121.902344 74.816406 122.488281 C 74.476562 122.78125 74.148438 123.089844 73.820312 123.398438 C 71.65625 125.332031 69.230469 126.945312 66.75 128.449219 C 66.332031 128.710938 65.925781 128.984375 65.515625 129.257812 C 64.703125 129.773438 63.851562 130.1875 62.984375 130.601562 C 62.851562 130.667969 62.714844 130.730469 62.578125 130.796875 C 61.875 131.125 61.253906 131.367188 60.472656 131.445312 C 61.015625 130.855469 61.632812 130.445312 62.300781 130.015625 C 64.953125 128.289062 67.171875 126.109375 69.234375 123.726562 C 69.382812 123.554688 69.53125 123.386719 69.679688 123.214844 C 72.464844 119.996094 75.898438 115.921875 75.558594 111.421875 C 75.410156 110.222656 74.945312 109.085938 74.523438 107.957031 C 74.484375 107.855469 74.445312 107.75 74.40625 107.644531 C 73.566406 105.390625 72.707031 103.148438 71.832031 100.910156 C 70.996094 98.769531 70.203125 96.617188 69.492188 94.429688 C 69.425781 94.226562 69.359375 94.023438 69.292969 93.8125 C 68.261719 90.59375 67.546875 87.511719 67.503906 84.121094 C 67.5 83.894531 67.496094 83.667969 67.492188 83.441406 C 67.441406 81.101562 67.96875 79.132812 69.398438 77.246094 C 69.453125 77.140625 69.507812 77.03125 69.566406 76.917969 C 69.335938 77.070312 69.101562 77.21875 68.871094 77.371094 C 68.746094 77.453125 68.617188 77.539062 68.484375 77.625 C 67.660156 78.191406 67.039062 78.769531 66.464844 79.585938 C 66.394531 79.6875 66.324219 79.789062 66.25 79.894531 C 62.761719 84.929688 61 91.019531 59.429688 96.867188 C 59.265625 97.476562 59.089844 98.082031 58.914062 98.691406 C 58.863281 98.867188 58.8125 99.042969 58.761719 99.222656 C 58.726562 99.34375 58.691406 99.460938 58.65625 99.582031 C 58.144531 98.984375 57.746094 98.359375 57.378906 97.664062 C 57.324219 97.558594 57.265625 97.453125 57.207031 97.347656 C 57.023438 97.003906 56.84375 96.660156 56.664062 96.320312 C 56.597656 96.199219 56.535156 96.082031 56.472656 95.960938 C 52.898438 89.222656 49.890625 82.242188 48.242188 74.785156 C 48.191406 74.554688 48.191406 74.554688 48.140625 74.324219 C 47.433594 71.074219 47.53125 67.402344 47.914062 64.109375 C 41.558594 73.902344 42.164062 88.839844 41.632812 100.074219 C 41.277344 99.640625 40.929688 99.203125 40.589844 98.757812 C 39.5 97.339844 38.316406 96.042969 37.082031 94.75 C 36.703125 94.347656 36.34375 93.933594 35.984375 93.519531 C 35.652344 93.144531 35.3125 92.78125 34.96875 92.417969 C 34.003906 91.390625 33.082031 90.34375 32.210938 89.234375 C 32.132812 89.140625 32.054688 89.042969 31.976562 88.941406 C 29.140625 85.328125 27.199219 81.429688 25.761719 77.082031 C 25.746094 77.3125 25.746094 77.3125 25.726562 77.546875 C 25.300781 83.097656 24.273438 88.355469 22.976562 93.765625 C 21.476562 100.054688 20.96875 106.039062 24.503906 111.78125 C 25.695312 113.621094 27.117188 115.21875 28.675781 116.761719 C 28.914062 117.003906 29.152344 117.246094 29.382812 117.496094 C 31.265625 119.5 33.757812 120.824219 36.175781 122.082031 C 36.304688 122.152344 36.433594 122.21875 36.566406 122.289062 C 39.777344 123.960938 43.117188 125.363281 46.433594 126.808594 C 48.621094 127.761719 50.789062 128.742188 52.914062 129.832031 C 53.089844 129.921875 53.265625 130.015625 53.449219 130.109375 C 54.667969 130.746094 54.667969 130.746094 54.855469 131.117188 C 54.246094 130.9375 53.695312 130.707031 53.128906 130.429688 C 50.515625 129.242188 47.617188 128.640625 44.84375 127.933594 C 44.699219 127.898438 44.558594 127.859375 44.410156 127.824219 C 43.996094 127.71875 43.582031 127.613281 43.167969 127.507812 C 43.046875 127.476562 42.921875 127.445312 42.792969 127.414062 C 42.132812 127.25 41.480469 127.109375 40.804688 127.011719 C 40.804688 126.902344 40.804688 126.792969 40.804688 126.679688 C 40.503906 126.660156 40.503906 126.660156 40.199219 126.636719 C 39.136719 126.519531 38.128906 126.21875 37.105469 125.921875 C 36.902344 125.863281 36.695312 125.804688 36.484375 125.742188 C 29.792969 123.785156 25.03125 120.792969 20.640625 115.347656 C 20.496094 115.179688 20.347656 115.007812 20.203125 114.839844 C 15.679688 109.609375 12.914062 103.800781 13.410156 96.8125 C 13.480469 96.304688 13.582031 95.8125 13.699219 95.3125 C 13.746094 95.101562 13.792969 94.890625 13.839844 94.671875 C 14.644531 91.269531 16.007812 87.988281 17.230469 84.71875 C 17.484375 84.035156 17.742188 83.351562 17.996094 82.667969 C 18.039062 82.546875 18.085938 82.425781 18.128906 82.304688 C 18.875 80.285156 19.339844 78.191406 19.8125 76.097656 C 19.839844 75.972656 19.871094 75.847656 19.898438 75.71875 C 21.296875 69.460938 21.089844 62.273438 19.722656 56.035156 C 19.648438 55.570312 19.648438 55.570312 19.8125 55.074219 C 19.886719 55.21875 19.957031 55.363281 20.035156 55.515625 C 20.785156 57.011719 21.542969 58.511719 22.300781 60.007812 C 23.046875 61.488281 23.796875 62.96875 24.542969 64.449219 C 25.039062 65.433594 25.539062 66.421875 26.039062 67.410156 C 28.234375 71.75 30.40625 76.085938 32.375 80.53125 C 32.503906 80.816406 32.632812 81.105469 32.761719 81.390625 C 33.046875 82.03125 33.332031 82.671875 33.613281 83.3125 C 33.660156 83.421875 33.707031 83.527344 33.757812 83.636719 C 35.742188 88.15625 35.742188 88.15625 36.011719 89.402344 C 36.035156 89.242188 36.058594 89.085938 36.085938 88.925781 C 36.753906 84.660156 37.46875 80.398438 38.253906 76.148438 C 38.332031 75.722656 38.414062 75.296875 38.492188 74.867188 C 39.492188 69.410156 40.621094 63.984375 41.839844 58.570312 C 42.011719 57.8125 42.179688 57.054688 42.351562 56.292969 C 42.550781 55.394531 42.753906 54.496094 42.953125 53.597656 C 42.984375 53.464844 43.015625 53.328125 43.042969 53.191406 C 43.730469 50.125 44.460938 47.074219 45.226562 44.03125 C 45.265625 43.878906 45.304688 43.726562 45.34375 43.570312 C 46.886719 37.441406 48.519531 31.28125 50.722656 25.347656 Z M 50.722656 25.347656 "/>
<path style=" stroke:none;fill-rule:nonzero;fill:rgb(99.607843%,99.607843%,61.568627%);fill-opacity:1;" d="M 26.425781 91.699219 C 27.089844 92.320312 27.648438 93.003906 28.21875 93.714844 C 29.796875 95.699219 31.449219 97.632812 33.164062 99.503906 C 33.472656 99.847656 33.777344 100.191406 34.082031 100.539062 C 36.058594 102.785156 38.136719 105.058594 40.433594 106.992188 C 40.746094 107.253906 41.054688 107.519531 41.359375 107.785156 C 42.589844 108.859375 43.839844 109.886719 45.148438 110.863281 C 45.742188 111.3125 46.332031 111.773438 46.921875 112.230469 C 46.949219 111.945312 46.949219 111.945312 46.980469 111.660156 C 47.488281 106.898438 48.132812 102.242188 49.398438 97.613281 C 49.453125 97.613281 49.507812 97.613281 49.566406 97.613281 C 49.589844 97.753906 49.617188 97.898438 49.644531 98.046875 C 50.960938 104.9375 53.917969 111.40625 58.160156 116.992188 C 58.636719 115.535156 58.820312 114.074219 59 112.558594 C 59.683594 106.847656 61.195312 102.160156 65.929688 98.433594 C 66.09375 98.378906 66.257812 98.324219 66.425781 98.269531 C 66.390625 98.367188 66.351562 98.464844 66.316406 98.566406 C 65.449219 101.363281 65.851562 104.359375 66.589844 107.136719 C 66.636719 107.320312 66.683594 107.5 66.730469 107.6875 C 67.09375 109.082031 67.515625 110.449219 67.96875 111.8125 C 70.175781 118.445312 70.175781 118.445312 68.738281 121.589844 C 67.980469 123.050781 66.902344 124.195312 65.761719 125.367188 C 65.609375 125.539062 65.609375 125.539062 65.453125 125.714844 C 63.980469 127.300781 62.023438 128.488281 60.121094 129.492188 C 60.007812 129.554688 59.894531 129.613281 59.78125 129.675781 C 59.464844 129.835938 59.144531 129.984375 58.820312 130.128906 C 58.640625 130.214844 58.460938 130.296875 58.273438 130.382812 C 57.339844 130.5 56.699219 130.109375 55.878906 129.699219 C 55.566406 129.550781 55.253906 129.402344 54.945312 129.25 C 54.792969 129.179688 54.640625 129.105469 54.480469 129.027344 C 53.914062 128.761719 53.332031 128.535156 52.746094 128.308594 C 52.234375 128.105469 51.75 127.863281 51.257812 127.617188 C 51.03125 127.5 50.804688 127.386719 50.582031 127.273438 C 50.449219 127.207031 50.320312 127.144531 50.1875 127.074219 C 49.320312 126.640625 48.449219 126.210938 47.582031 125.777344 C 47.25 125.613281 46.921875 125.449219 46.589844 125.285156 C 45.292969 124.640625 45.292969 124.640625 43.992188 124 C 30.625 117.46875 30.625 117.46875 28.699219 111.90625 C 28.316406 110.386719 28.207031 108.976562 28.246094 107.414062 C 28.253906 106.988281 28.257812 106.5625 28.265625 106.136719 C 28.265625 106.027344 28.269531 105.917969 28.269531 105.808594 C 28.328125 101.957031 28.375 98.21875 27.25 94.492188 C 27.207031 94.347656 27.167969 94.207031 27.121094 94.058594 C 26.957031 93.503906 26.777344 92.960938 26.570312 92.421875 C 26.425781 92.027344 26.425781 92.027344 26.425781 91.699219 Z M 26.425781 91.699219 "/>
</g>
</svg>
